PathFileType	4	(X/Y/Z)	Walk9.trc
DataRate	CameraRate	NumFrames	NumMarkers	Units	OrigDataRate	OrigDataStartFrame	OrigNumFrames
200.000000	200.000000	5	61	mm	200.000000	775	817
Frame#	Times		RCAR		LTH3		LTB1		LBHD		RWRU		LWRU		LFA1		RTH2		LUA1		LElbow		LCAR		LTH2		RPSI		RTH3		C7		LElbowM		RFA1		RBHD		RToe		RTB2		RTB3		LTH1		RTB1		RMT5		RElbow		RASI		RLFC		RTB4		LWRR		RMT1		RTH4		T10		RBack		RLMAL		LPSI		CLAV		RMFC		RMMAL		RCAL		RUA1		LMFC		LACR1		LLFC		STRN		RWRR		RTH1		LTH4		LTB4		RElbowM		LASI		LTB3		LMT5		LFHD		RFHD		RACR1		LCAL		LMMAL		LTB2		LLMAL		LToe		LMT1
			X1	Y1	Z1	X2	Y2	Z2	X3	Y3	Z3	X4	Y4	Z4	X5	Y5	Z5	X6	Y6	Z6	X7	Y7	Z7	X8	Y8	Z8	X9	Y9	Z9	X10	Y10	Z10	X11	Y11	Z11	X12	Y12	Z12	X13	Y13	Z13	X14	Y14	Z14	X15	Y15	Z15	X16	Y16	Z16	X17	Y17	Z17	X18	Y18	Z18	X19	Y19	Z19	X20	Y20	Z20	X21	Y21	Z21	X22	Y22	Z22	X23	Y23	Z23	X24	Y24	Z24	X25	Y25	Z25	X26	Y26	Z26	X27	Y27	Z27	X28	Y28	Z28	X29	Y29	Z29	X30	Y30	Z30	X31	Y31	Z31	X32	Y32	Z32	X33	Y33	Z33	X34	Y34	Z34	X35	Y35	Z35	X36	Y36	Z36	X37	Y37	Z37	X38	Y38	Z38	X39	Y39	Z39	X40	Y40	Z40	X41	Y41	Z41	X42	Y42	Z42	X43	Y43	Z43	X44	Y44	Z44	X45	Y45	Z45	X46	Y46	Z46	X47	Y47	Z47	X48	Y48	Z48	X49	Y49	Z49	X50	Y50	Z50	X51	Y51	Z51	X52	Y52	Z52	X53	Y53	Z53	X54	Y54	Z54	X55	Y55	Z55	X56	Y56	Z56	X57	Y57	Z57	X58	Y58	Z58	X59	Y59	Z59	X60	Y60	Z60	X61	Y61	Z61

775	3.875	960.74	841.01	330.29	897.29	617.65	-135.03	915.43	373.57	-42.155	850.44	1651.4	-73.709	898.89	868.04	317.67	998.59	883.69	-271.31	940.57	1004.8	-291.57	1030.5	739.22	194.03	888.35	1304.7	-262.38	886.79	1147.8	-290.52	1079.2	863.62	-270.75	967.33	712.39	-128.73	739.12	1032	58.126	985.29	630.58	219.59	829.73	1523.6	1.9752	847.09	1132.1	-225.46	857.22	998.27	312.7	860.5	1663.7	67.459	974.01	46.046	156.73	922.77	314.46	195.12	911.31	230.33	122.66	903.5	800.74	-167.89	1004.3	388.65	147.87	877.3	53.128	192.13	828.34	1145.5	287.67	949.45	1054.4	159.44	991.6	518.84	213.14	959.42	308.15	134.17	1058	913.51	-219.52	933.78	51.967	127	973.04	726.41	225.87	730.54	1298	2.641	752.51	1437.7	131.84	810.06	134.84	151.55	737.49	1030	-21.642	961.76	1438.5	3.4565	1024.6	529.77	84.052	864.39	144.95	81.457	756.05	117.79	90.683	865.15	1300.5	260.38	894.28	521.24	7.3481	904.09	1476.6	-164.18	885.84	513.63	-121.65	1011.5	1266.1	3.5323	962.56	881.12	276.63	939.53	813.63	220.55	898.99	708.61	-152.46	894.64	286.14	-37.703	812.09	1130.4	210.51	913.53	1037.6	-93.242	872.1	192.64	-35.83	904.38	22.604	-111.41	1030.1	1697.1	-45.491	1035	1702.3	30.764	905.77	1474.1	165.61	747.03	28.619	-32.47	835.42	91.169	7.5419	874.37	289.17	-110.69	808.03	70.543	-74.618	1008	31.918	-43.272	953.94	40.379	-27.291
776	3.88	961.93	840.87	331.16	898.97	617.66	-134.99	915.91	373.45	-42.142	855.06	1651.4	-73.614	900.24	868.14	318.08	1007.5	885.06	-271.51	948.36	1005.6	-292	1035.9	740.2	193.62	893.86	1305.1	-262.56	893.29	1148.1	-291.05	1088.2	865.79	-271.12	969.81	711.83	-128.67	743.47	1032.2	58.152	991.47	631.34	219.48	834.35	1523.7	2.0046	853.7	1132.1	-226	858.99	998.42	312.81	865.13	1663.7	67.552	991.34	46.161	157.3	933.77	313.37	195.09	924.06	228.56	122.95	906.73	800.63	-167.91	1013.7	389.25	147.76	894.31	51.255	192.48	830.78	1145.7	287.55	953.73	1054.4	159.39	998.58	519.4	212.91	970.64	307.75	134.1	1066.7	915.53	-219.92	951.03	51.232	127.44	979.09	727.11	225.83	735.08	1298.1	2.6025	756.92	1437.8	131.65	825.24	131.13	151.47	741.86	1030	-21.532	966.34	1438.5	3.5603	1030.8	530.61	83.629	879.63	142.37	81.379	771.81	112.62	90.469	868.38	1300.6	260.59	895.41	521.13	7.3685	908.88	1476.7	-164.07	886.76	513.64	-121.61	1016.1	1266.1	3.5509	964.24	880.97	277.57	944.61	814.11	220.61	901.41	708.61	-152.34	894.99	286.06	-37.688	814.93	1130.7	210.34	921.65	1039.3	-96.442	872.29	192.58	-35.818	904.36	22.595	-111.42	1034.7	1697.1	-45.398	1039.6	1702.3	30.86	910.17	1474.1	165.77	747.05	28.671	-32.462	835.41	91.192	7.5744	874.72	289.13	-110.67	808.05	70.593	-74.602	1008	31.908	-43.273	953.91	40.36	-27.282
777	3.885	963.18	840.72	332.05	900.66	617.67	-134.95	916.41	373.33	-42.139	859.7	1651.4	-73.503	901.65	868.19	318.52	1016.3	886.4	-271.69	956.1	1006.4	-292.41	1041.2	741.09	193.22	899.35	1305.4	-262.73	899.75	1148.5	-291.57	1097.2	867.95	-271.46	972.29	711.25	-128.6	747.81	1032.3	58.188	997.52	632.03	219.36	838.97	1523.7	2.0497	860.3	1132	-226.52	860.82	998.54	312.93	869.77	1663.7	67.661	1008.7	46.386	157.91	944.76	312.28	195.09	936.91	226.86	123.22	909.96	800.5	-167.93	1023.1	389.83	147.65	911.43	49.468	192.91	833.28	1145.9	287.45	958.04	1054.3	159.36	1005.4	519.88	212.66	981.83	307.34	134.07	1075.4	917.53	-220.31	968.35	50.591	127.93	984.85	727.67	225.81	739.63	1298.2	2.5808	761.35	1437.9	131.48	840.56	127.45	151.47	746.23	1030	-21.395	970.92	1438.5	3.6773	1037	531.37	83.192	894.98	139.83	81.365	787.76	107.48	90.337	871.66	1300.7	260.81	896.54	521.02	7.3847	913.66	1476.8	-163.95	887.67	513.64	-121.59	1020.7	1266.1	3.5905	965.99	880.81	278.52	949.58	814.53	220.67	903.84	708.6	-152.21	895.34	285.99	-37.68	817.81	1130.9	210.19	929.66	1040.9	-99.541	872.48	192.53	-35.804	904.33	22.587	-111.42	1039.4	1697.1	-45.29	1044.3	1702.3	30.972	914.59	1474.1	165.95	747.07	28.729	-32.456	835.41	91.216	7.6053	875.08	289.11	-110.65	808.05	70.644	-74.588	1008	31.897	-43.275	953.89	40.341	-27.275
778	3.89	964.48	840.56	332.96	902.34	617.68	-134.93	916.91	373.22	-42.145	864.35	1651.4	-73.376	903.12	868.2	318.96	1025.1	887.73	-271.84	963.8	1007.1	-292.81	1046.4	741.89	192.85	904.83	1305.6	-262.87	906.18	1148.8	-292.06	1106.2	870.08	-271.78	974.77	710.66	-128.53	752.16	1032.4	58.234	1003.4	632.64	219.22	843.62	1523.7	2.1105	866.86	1131.9	-227.04	862.71	998.65	313.07	874.43	1663.6	67.787	1026.2	46.73	158.55	955.72	311.19	195.1	949.85	225.24	123.48	913.19	800.36	-167.94	1032.3	390.4	147.55	928.66	47.781	193.39	835.82	1146.1	287.38	962.36	1054.2	159.38	1012.1	520.31	212.39	992.98	306.94	134.07	1083.9	919.5	-220.66	985.73	50.055	128.47	990.33	728.07	225.78	744.18	1298.2	2.574	765.79	1437.9	131.34	856.02	123.82	151.55	750.61	1030	-21.235	975.52	1438.4	3.8077	1043	532.05	82.74	910.42	137.36	81.419	803.9	102.39	90.303	874.98	1300.8	261.03	897.67	520.91	7.3975	918.46	1476.9	-163.82	888.57	513.64	-121.56	1025.4	1266	3.653	967.81	880.62	279.48	954.47	814.89	220.74	906.26	708.58	-152.09	895.7	285.92	-37.68	820.75	1131.1	210.06	937.52	1042.2	-102.51	872.67	192.47	-35.793	904.3	22.578	-111.43	1044	1697.1	-45.166	1048.9	1702.2	31.1	919.02	1474	166.13	747.09	28.793	-32.454	835.4	91.241	7.6343	875.42	289.09	-110.63	808.06	70.698	-74.575	1008	31.884	-43.277	953.86	40.323	-27.271
779	3.895	965.84	840.39	333.89	904.04	617.68	-134.9	917.42	373.1	-42.16	869.01	1651.3	-73.231	904.66	868.16	319.41	1033.8	889.02	-271.97	971.44	1007.8	-293.19	1051.6	742.59	192.49	910.28	1305.9	-263	912.58	1149.1	-292.54	1115	872.18	-272.07	977.25	710.06	-128.45	756.51	1032.4	58.292	1009.2	633.18	219.06	848.28	1523.7	2.1873	873.39	1131.8	-227.54	864.65	998.74	313.23	879.1	1663.5	67.93	1043.6	47.204	159.22	966.67	310.12	195.13	962.88	223.71	123.73	916.41	800.22	-167.93	1041.4	390.95	147.44	945.98	46.206	193.94	838.43	1146.3	287.33	966.7	1054.1	159.42	1018.6	520.65	212.09	1004.1	306.55	134.1	1092.4	921.44	-220.99	1003.2	49.633	129.06	995.53	728.31	225.76	748.73	1298.3	2.5803	770.26	1437.9	131.22	871.6	120.24	151.72	754.99	1029.9	-21.054	980.13	1438.3	3.9516	1048.9	532.64	82.274	925.93	134.96	81.547	820.21	97.348	90.38	878.35	1300.8	261.27	898.8	520.81	7.4077	923.26	1476.9	-163.67	889.47	513.64	-121.54	1030	1265.9	3.7404	969.69	880.42	280.45	959.27	815.18	220.8	908.69	708.55	-151.96	896.06	285.84	-37.688	823.74	1131.3	209.95	945.2	1043.4	-105.31	872.86	192.42	-35.786	904.27	22.57	-111.44	1048.7	1697	-45.028	1053.6	1702.1	31.243	923.48	1473.9	166.33	747.1	28.864	-32.454	835.41	91.267	7.6608	875.77	289.08	-110.63	808.06	70.753	-74.563	1007.9	31.87	-43.28	953.83	40.308	-27.271
